G75*
G70*
%OFA0B0*%
%FSLAX24Y24*%
%IPPOS*%
%LPD*%
%AMOC8*
5,1,8,0,0,1.08239X$1,22.5*
%
%ADD10C,0.0000*%
D10*
X000000Y000000D02*
X000000Y008000D01*
X001400Y008000D01*
X001400Y010000D01*
X000000Y010000D01*
X000000Y018000D01*
X019685Y018000D01*
X019685Y010000D01*
X018000Y010000D01*
X018000Y008000D01*
X019685Y008000D01*
X019685Y000000D01*
X000000Y000000D01*
X004725Y005100D02*
X004727Y005149D01*
X004733Y005197D01*
X004743Y005245D01*
X004757Y005292D01*
X004774Y005338D01*
X004795Y005382D01*
X004820Y005424D01*
X004848Y005464D01*
X004880Y005502D01*
X004914Y005537D01*
X004951Y005569D01*
X004990Y005598D01*
X005032Y005624D01*
X005076Y005646D01*
X005121Y005664D01*
X005168Y005679D01*
X005215Y005690D01*
X005264Y005697D01*
X005313Y005700D01*
X005362Y005699D01*
X005410Y005694D01*
X005459Y005685D01*
X005506Y005672D01*
X005552Y005655D01*
X005596Y005635D01*
X005639Y005611D01*
X005680Y005584D01*
X005718Y005553D01*
X005754Y005520D01*
X005786Y005484D01*
X005816Y005445D01*
X005843Y005404D01*
X005866Y005360D01*
X005885Y005315D01*
X005901Y005269D01*
X005913Y005222D01*
X005921Y005173D01*
X005925Y005124D01*
X005925Y005076D01*
X005921Y005027D01*
X005913Y004978D01*
X005901Y004931D01*
X005885Y004885D01*
X005866Y004840D01*
X005843Y004796D01*
X005816Y004755D01*
X005786Y004716D01*
X005754Y004680D01*
X005718Y004647D01*
X005680Y004616D01*
X005639Y004589D01*
X005596Y004565D01*
X005552Y004545D01*
X005506Y004528D01*
X005459Y004515D01*
X005410Y004506D01*
X005362Y004501D01*
X005313Y004500D01*
X005264Y004503D01*
X005215Y004510D01*
X005168Y004521D01*
X005121Y004536D01*
X005076Y004554D01*
X005032Y004576D01*
X004990Y004602D01*
X004951Y004631D01*
X004914Y004663D01*
X004880Y004698D01*
X004848Y004736D01*
X004820Y004776D01*
X004795Y004818D01*
X004774Y004862D01*
X004757Y004908D01*
X004743Y004955D01*
X004733Y005003D01*
X004727Y005051D01*
X004725Y005100D01*
X002600Y008000D02*
X016800Y008000D01*
X016800Y010000D01*
X002600Y010000D01*
X002600Y008000D01*
X002282Y008100D02*
X002284Y008121D01*
X002290Y008141D01*
X002299Y008161D01*
X002311Y008178D01*
X002326Y008192D01*
X002344Y008204D01*
X002364Y008212D01*
X002384Y008217D01*
X002405Y008218D01*
X002426Y008215D01*
X002446Y008209D01*
X002465Y008198D01*
X002482Y008185D01*
X002495Y008169D01*
X002506Y008151D01*
X002514Y008131D01*
X002518Y008111D01*
X002518Y008089D01*
X002514Y008069D01*
X002506Y008049D01*
X002495Y008031D01*
X002482Y008015D01*
X002465Y008002D01*
X002446Y007991D01*
X002426Y007985D01*
X002405Y007982D01*
X002384Y007983D01*
X002364Y007988D01*
X002344Y007996D01*
X002326Y008008D01*
X002311Y008022D01*
X002299Y008039D01*
X002290Y008059D01*
X002284Y008079D01*
X002282Y008100D01*
X001882Y008100D02*
X001884Y008121D01*
X001890Y008141D01*
X001899Y008161D01*
X001911Y008178D01*
X001926Y008192D01*
X001944Y008204D01*
X001964Y008212D01*
X001984Y008217D01*
X002005Y008218D01*
X002026Y008215D01*
X002046Y008209D01*
X002065Y008198D01*
X002082Y008185D01*
X002095Y008169D01*
X002106Y008151D01*
X002114Y008131D01*
X002118Y008111D01*
X002118Y008089D01*
X002114Y008069D01*
X002106Y008049D01*
X002095Y008031D01*
X002082Y008015D01*
X002065Y008002D01*
X002046Y007991D01*
X002026Y007985D01*
X002005Y007982D01*
X001984Y007983D01*
X001964Y007988D01*
X001944Y007996D01*
X001926Y008008D01*
X001911Y008022D01*
X001899Y008039D01*
X001890Y008059D01*
X001884Y008079D01*
X001882Y008100D01*
X001482Y008100D02*
X001484Y008121D01*
X001490Y008141D01*
X001499Y008161D01*
X001511Y008178D01*
X001526Y008192D01*
X001544Y008204D01*
X001564Y008212D01*
X001584Y008217D01*
X001605Y008218D01*
X001626Y008215D01*
X001646Y008209D01*
X001665Y008198D01*
X001682Y008185D01*
X001695Y008169D01*
X001706Y008151D01*
X001714Y008131D01*
X001718Y008111D01*
X001718Y008089D01*
X001714Y008069D01*
X001706Y008049D01*
X001695Y008031D01*
X001682Y008015D01*
X001665Y008002D01*
X001646Y007991D01*
X001626Y007985D01*
X001605Y007982D01*
X001584Y007983D01*
X001564Y007988D01*
X001544Y007996D01*
X001526Y008008D01*
X001511Y008022D01*
X001499Y008039D01*
X001490Y008059D01*
X001484Y008079D01*
X001482Y008100D01*
X001482Y009900D02*
X001484Y009921D01*
X001490Y009941D01*
X001499Y009961D01*
X001511Y009978D01*
X001526Y009992D01*
X001544Y010004D01*
X001564Y010012D01*
X001584Y010017D01*
X001605Y010018D01*
X001626Y010015D01*
X001646Y010009D01*
X001665Y009998D01*
X001682Y009985D01*
X001695Y009969D01*
X001706Y009951D01*
X001714Y009931D01*
X001718Y009911D01*
X001718Y009889D01*
X001714Y009869D01*
X001706Y009849D01*
X001695Y009831D01*
X001682Y009815D01*
X001665Y009802D01*
X001646Y009791D01*
X001626Y009785D01*
X001605Y009782D01*
X001584Y009783D01*
X001564Y009788D01*
X001544Y009796D01*
X001526Y009808D01*
X001511Y009822D01*
X001499Y009839D01*
X001490Y009859D01*
X001484Y009879D01*
X001482Y009900D01*
X001882Y009900D02*
X001884Y009921D01*
X001890Y009941D01*
X001899Y009961D01*
X001911Y009978D01*
X001926Y009992D01*
X001944Y010004D01*
X001964Y010012D01*
X001984Y010017D01*
X002005Y010018D01*
X002026Y010015D01*
X002046Y010009D01*
X002065Y009998D01*
X002082Y009985D01*
X002095Y009969D01*
X002106Y009951D01*
X002114Y009931D01*
X002118Y009911D01*
X002118Y009889D01*
X002114Y009869D01*
X002106Y009849D01*
X002095Y009831D01*
X002082Y009815D01*
X002065Y009802D01*
X002046Y009791D01*
X002026Y009785D01*
X002005Y009782D01*
X001984Y009783D01*
X001964Y009788D01*
X001944Y009796D01*
X001926Y009808D01*
X001911Y009822D01*
X001899Y009839D01*
X001890Y009859D01*
X001884Y009879D01*
X001882Y009900D01*
X002282Y009900D02*
X002284Y009921D01*
X002290Y009941D01*
X002299Y009961D01*
X002311Y009978D01*
X002326Y009992D01*
X002344Y010004D01*
X002364Y010012D01*
X002384Y010017D01*
X002405Y010018D01*
X002426Y010015D01*
X002446Y010009D01*
X002465Y009998D01*
X002482Y009985D01*
X002495Y009969D01*
X002506Y009951D01*
X002514Y009931D01*
X002518Y009911D01*
X002518Y009889D01*
X002514Y009869D01*
X002506Y009849D01*
X002495Y009831D01*
X002482Y009815D01*
X002465Y009802D01*
X002446Y009791D01*
X002426Y009785D01*
X002405Y009782D01*
X002384Y009783D01*
X002364Y009788D01*
X002344Y009796D01*
X002326Y009808D01*
X002311Y009822D01*
X002299Y009839D01*
X002290Y009859D01*
X002284Y009879D01*
X002282Y009900D01*
X004725Y015100D02*
X004727Y015149D01*
X004733Y015197D01*
X004743Y015245D01*
X004757Y015292D01*
X004774Y015338D01*
X004795Y015382D01*
X004820Y015424D01*
X004848Y015464D01*
X004880Y015502D01*
X004914Y015537D01*
X004951Y015569D01*
X004990Y015598D01*
X005032Y015624D01*
X005076Y015646D01*
X005121Y015664D01*
X005168Y015679D01*
X005215Y015690D01*
X005264Y015697D01*
X005313Y015700D01*
X005362Y015699D01*
X005410Y015694D01*
X005459Y015685D01*
X005506Y015672D01*
X005552Y015655D01*
X005596Y015635D01*
X005639Y015611D01*
X005680Y015584D01*
X005718Y015553D01*
X005754Y015520D01*
X005786Y015484D01*
X005816Y015445D01*
X005843Y015404D01*
X005866Y015360D01*
X005885Y015315D01*
X005901Y015269D01*
X005913Y015222D01*
X005921Y015173D01*
X005925Y015124D01*
X005925Y015076D01*
X005921Y015027D01*
X005913Y014978D01*
X005901Y014931D01*
X005885Y014885D01*
X005866Y014840D01*
X005843Y014796D01*
X005816Y014755D01*
X005786Y014716D01*
X005754Y014680D01*
X005718Y014647D01*
X005680Y014616D01*
X005639Y014589D01*
X005596Y014565D01*
X005552Y014545D01*
X005506Y014528D01*
X005459Y014515D01*
X005410Y014506D01*
X005362Y014501D01*
X005313Y014500D01*
X005264Y014503D01*
X005215Y014510D01*
X005168Y014521D01*
X005121Y014536D01*
X005076Y014554D01*
X005032Y014576D01*
X004990Y014602D01*
X004951Y014631D01*
X004914Y014663D01*
X004880Y014698D01*
X004848Y014736D01*
X004820Y014776D01*
X004795Y014818D01*
X004774Y014862D01*
X004757Y014908D01*
X004743Y014955D01*
X004733Y015003D01*
X004727Y015051D01*
X004725Y015100D01*
X016025Y016250D02*
X016027Y016277D01*
X016033Y016304D01*
X016042Y016330D01*
X016055Y016354D01*
X016071Y016377D01*
X016090Y016396D01*
X016112Y016413D01*
X016136Y016427D01*
X016161Y016437D01*
X016188Y016444D01*
X016215Y016447D01*
X016243Y016446D01*
X016270Y016441D01*
X016296Y016433D01*
X016320Y016421D01*
X016343Y016405D01*
X016364Y016387D01*
X016381Y016366D01*
X016396Y016342D01*
X016407Y016317D01*
X016415Y016291D01*
X016419Y016264D01*
X016419Y016236D01*
X016415Y016209D01*
X016407Y016183D01*
X016396Y016158D01*
X016381Y016134D01*
X016364Y016113D01*
X016343Y016095D01*
X016321Y016079D01*
X016296Y016067D01*
X016270Y016059D01*
X016243Y016054D01*
X016215Y016053D01*
X016188Y016056D01*
X016161Y016063D01*
X016136Y016073D01*
X016112Y016087D01*
X016090Y016104D01*
X016071Y016123D01*
X016055Y016146D01*
X016042Y016170D01*
X016033Y016196D01*
X016027Y016223D01*
X016025Y016250D01*
X018978Y016250D02*
X018980Y016277D01*
X018986Y016304D01*
X018995Y016330D01*
X019008Y016354D01*
X019024Y016377D01*
X019043Y016396D01*
X019065Y016413D01*
X019089Y016427D01*
X019114Y016437D01*
X019141Y016444D01*
X019168Y016447D01*
X019196Y016446D01*
X019223Y016441D01*
X019249Y016433D01*
X019273Y016421D01*
X019296Y016405D01*
X019317Y016387D01*
X019334Y016366D01*
X019349Y016342D01*
X019360Y016317D01*
X019368Y016291D01*
X019372Y016264D01*
X019372Y016236D01*
X019368Y016209D01*
X019360Y016183D01*
X019349Y016158D01*
X019334Y016134D01*
X019317Y016113D01*
X019296Y016095D01*
X019274Y016079D01*
X019249Y016067D01*
X019223Y016059D01*
X019196Y016054D01*
X019168Y016053D01*
X019141Y016056D01*
X019114Y016063D01*
X019089Y016073D01*
X019065Y016087D01*
X019043Y016104D01*
X019024Y016123D01*
X019008Y016146D01*
X018995Y016170D01*
X018986Y016196D01*
X018980Y016223D01*
X018978Y016250D01*
X018978Y011750D02*
X018980Y011777D01*
X018986Y011804D01*
X018995Y011830D01*
X019008Y011854D01*
X019024Y011877D01*
X019043Y011896D01*
X019065Y011913D01*
X019089Y011927D01*
X019114Y011937D01*
X019141Y011944D01*
X019168Y011947D01*
X019196Y011946D01*
X019223Y011941D01*
X019249Y011933D01*
X019273Y011921D01*
X019296Y011905D01*
X019317Y011887D01*
X019334Y011866D01*
X019349Y011842D01*
X019360Y011817D01*
X019368Y011791D01*
X019372Y011764D01*
X019372Y011736D01*
X019368Y011709D01*
X019360Y011683D01*
X019349Y011658D01*
X019334Y011634D01*
X019317Y011613D01*
X019296Y011595D01*
X019274Y011579D01*
X019249Y011567D01*
X019223Y011559D01*
X019196Y011554D01*
X019168Y011553D01*
X019141Y011556D01*
X019114Y011563D01*
X019089Y011573D01*
X019065Y011587D01*
X019043Y011604D01*
X019024Y011623D01*
X019008Y011646D01*
X018995Y011670D01*
X018986Y011696D01*
X018980Y011723D01*
X018978Y011750D01*
X017682Y009900D02*
X017684Y009921D01*
X017690Y009941D01*
X017699Y009961D01*
X017711Y009978D01*
X017726Y009992D01*
X017744Y010004D01*
X017764Y010012D01*
X017784Y010017D01*
X017805Y010018D01*
X017826Y010015D01*
X017846Y010009D01*
X017865Y009998D01*
X017882Y009985D01*
X017895Y009969D01*
X017906Y009951D01*
X017914Y009931D01*
X017918Y009911D01*
X017918Y009889D01*
X017914Y009869D01*
X017906Y009849D01*
X017895Y009831D01*
X017882Y009815D01*
X017865Y009802D01*
X017846Y009791D01*
X017826Y009785D01*
X017805Y009782D01*
X017784Y009783D01*
X017764Y009788D01*
X017744Y009796D01*
X017726Y009808D01*
X017711Y009822D01*
X017699Y009839D01*
X017690Y009859D01*
X017684Y009879D01*
X017682Y009900D01*
X017282Y009900D02*
X017284Y009921D01*
X017290Y009941D01*
X017299Y009961D01*
X017311Y009978D01*
X017326Y009992D01*
X017344Y010004D01*
X017364Y010012D01*
X017384Y010017D01*
X017405Y010018D01*
X017426Y010015D01*
X017446Y010009D01*
X017465Y009998D01*
X017482Y009985D01*
X017495Y009969D01*
X017506Y009951D01*
X017514Y009931D01*
X017518Y009911D01*
X017518Y009889D01*
X017514Y009869D01*
X017506Y009849D01*
X017495Y009831D01*
X017482Y009815D01*
X017465Y009802D01*
X017446Y009791D01*
X017426Y009785D01*
X017405Y009782D01*
X017384Y009783D01*
X017364Y009788D01*
X017344Y009796D01*
X017326Y009808D01*
X017311Y009822D01*
X017299Y009839D01*
X017290Y009859D01*
X017284Y009879D01*
X017282Y009900D01*
X016882Y009900D02*
X016884Y009921D01*
X016890Y009941D01*
X016899Y009961D01*
X016911Y009978D01*
X016926Y009992D01*
X016944Y010004D01*
X016964Y010012D01*
X016984Y010017D01*
X017005Y010018D01*
X017026Y010015D01*
X017046Y010009D01*
X017065Y009998D01*
X017082Y009985D01*
X017095Y009969D01*
X017106Y009951D01*
X017114Y009931D01*
X017118Y009911D01*
X017118Y009889D01*
X017114Y009869D01*
X017106Y009849D01*
X017095Y009831D01*
X017082Y009815D01*
X017065Y009802D01*
X017046Y009791D01*
X017026Y009785D01*
X017005Y009782D01*
X016984Y009783D01*
X016964Y009788D01*
X016944Y009796D01*
X016926Y009808D01*
X016911Y009822D01*
X016899Y009839D01*
X016890Y009859D01*
X016884Y009879D01*
X016882Y009900D01*
X016882Y008100D02*
X016884Y008121D01*
X016890Y008141D01*
X016899Y008161D01*
X016911Y008178D01*
X016926Y008192D01*
X016944Y008204D01*
X016964Y008212D01*
X016984Y008217D01*
X017005Y008218D01*
X017026Y008215D01*
X017046Y008209D01*
X017065Y008198D01*
X017082Y008185D01*
X017095Y008169D01*
X017106Y008151D01*
X017114Y008131D01*
X017118Y008111D01*
X017118Y008089D01*
X017114Y008069D01*
X017106Y008049D01*
X017095Y008031D01*
X017082Y008015D01*
X017065Y008002D01*
X017046Y007991D01*
X017026Y007985D01*
X017005Y007982D01*
X016984Y007983D01*
X016964Y007988D01*
X016944Y007996D01*
X016926Y008008D01*
X016911Y008022D01*
X016899Y008039D01*
X016890Y008059D01*
X016884Y008079D01*
X016882Y008100D01*
X017282Y008100D02*
X017284Y008121D01*
X017290Y008141D01*
X017299Y008161D01*
X017311Y008178D01*
X017326Y008192D01*
X017344Y008204D01*
X017364Y008212D01*
X017384Y008217D01*
X017405Y008218D01*
X017426Y008215D01*
X017446Y008209D01*
X017465Y008198D01*
X017482Y008185D01*
X017495Y008169D01*
X017506Y008151D01*
X017514Y008131D01*
X017518Y008111D01*
X017518Y008089D01*
X017514Y008069D01*
X017506Y008049D01*
X017495Y008031D01*
X017482Y008015D01*
X017465Y008002D01*
X017446Y007991D01*
X017426Y007985D01*
X017405Y007982D01*
X017384Y007983D01*
X017364Y007988D01*
X017344Y007996D01*
X017326Y008008D01*
X017311Y008022D01*
X017299Y008039D01*
X017290Y008059D01*
X017284Y008079D01*
X017282Y008100D01*
X017682Y008100D02*
X017684Y008121D01*
X017690Y008141D01*
X017699Y008161D01*
X017711Y008178D01*
X017726Y008192D01*
X017744Y008204D01*
X017764Y008212D01*
X017784Y008217D01*
X017805Y008218D01*
X017826Y008215D01*
X017846Y008209D01*
X017865Y008198D01*
X017882Y008185D01*
X017895Y008169D01*
X017906Y008151D01*
X017914Y008131D01*
X017918Y008111D01*
X017918Y008089D01*
X017914Y008069D01*
X017906Y008049D01*
X017895Y008031D01*
X017882Y008015D01*
X017865Y008002D01*
X017846Y007991D01*
X017826Y007985D01*
X017805Y007982D01*
X017784Y007983D01*
X017764Y007988D01*
X017744Y007996D01*
X017726Y008008D01*
X017711Y008022D01*
X017699Y008039D01*
X017690Y008059D01*
X017684Y008079D01*
X017682Y008100D01*
X016025Y006250D02*
X016027Y006277D01*
X016033Y006304D01*
X016042Y006330D01*
X016055Y006354D01*
X016071Y006377D01*
X016090Y006396D01*
X016112Y006413D01*
X016136Y006427D01*
X016161Y006437D01*
X016188Y006444D01*
X016215Y006447D01*
X016243Y006446D01*
X016270Y006441D01*
X016296Y006433D01*
X016320Y006421D01*
X016343Y006405D01*
X016364Y006387D01*
X016381Y006366D01*
X016396Y006342D01*
X016407Y006317D01*
X016415Y006291D01*
X016419Y006264D01*
X016419Y006236D01*
X016415Y006209D01*
X016407Y006183D01*
X016396Y006158D01*
X016381Y006134D01*
X016364Y006113D01*
X016343Y006095D01*
X016321Y006079D01*
X016296Y006067D01*
X016270Y006059D01*
X016243Y006054D01*
X016215Y006053D01*
X016188Y006056D01*
X016161Y006063D01*
X016136Y006073D01*
X016112Y006087D01*
X016090Y006104D01*
X016071Y006123D01*
X016055Y006146D01*
X016042Y006170D01*
X016033Y006196D01*
X016027Y006223D01*
X016025Y006250D01*
X018978Y006250D02*
X018980Y006277D01*
X018986Y006304D01*
X018995Y006330D01*
X019008Y006354D01*
X019024Y006377D01*
X019043Y006396D01*
X019065Y006413D01*
X019089Y006427D01*
X019114Y006437D01*
X019141Y006444D01*
X019168Y006447D01*
X019196Y006446D01*
X019223Y006441D01*
X019249Y006433D01*
X019273Y006421D01*
X019296Y006405D01*
X019317Y006387D01*
X019334Y006366D01*
X019349Y006342D01*
X019360Y006317D01*
X019368Y006291D01*
X019372Y006264D01*
X019372Y006236D01*
X019368Y006209D01*
X019360Y006183D01*
X019349Y006158D01*
X019334Y006134D01*
X019317Y006113D01*
X019296Y006095D01*
X019274Y006079D01*
X019249Y006067D01*
X019223Y006059D01*
X019196Y006054D01*
X019168Y006053D01*
X019141Y006056D01*
X019114Y006063D01*
X019089Y006073D01*
X019065Y006087D01*
X019043Y006104D01*
X019024Y006123D01*
X019008Y006146D01*
X018995Y006170D01*
X018986Y006196D01*
X018980Y006223D01*
X018978Y006250D01*
X018978Y001750D02*
X018980Y001777D01*
X018986Y001804D01*
X018995Y001830D01*
X019008Y001854D01*
X019024Y001877D01*
X019043Y001896D01*
X019065Y001913D01*
X019089Y001927D01*
X019114Y001937D01*
X019141Y001944D01*
X019168Y001947D01*
X019196Y001946D01*
X019223Y001941D01*
X019249Y001933D01*
X019273Y001921D01*
X019296Y001905D01*
X019317Y001887D01*
X019334Y001866D01*
X019349Y001842D01*
X019360Y001817D01*
X019368Y001791D01*
X019372Y001764D01*
X019372Y001736D01*
X019368Y001709D01*
X019360Y001683D01*
X019349Y001658D01*
X019334Y001634D01*
X019317Y001613D01*
X019296Y001595D01*
X019274Y001579D01*
X019249Y001567D01*
X019223Y001559D01*
X019196Y001554D01*
X019168Y001553D01*
X019141Y001556D01*
X019114Y001563D01*
X019089Y001573D01*
X019065Y001587D01*
X019043Y001604D01*
X019024Y001623D01*
X019008Y001646D01*
X018995Y001670D01*
X018986Y001696D01*
X018980Y001723D01*
X018978Y001750D01*
X016025Y001750D02*
X016027Y001777D01*
X016033Y001804D01*
X016042Y001830D01*
X016055Y001854D01*
X016071Y001877D01*
X016090Y001896D01*
X016112Y001913D01*
X016136Y001927D01*
X016161Y001937D01*
X016188Y001944D01*
X016215Y001947D01*
X016243Y001946D01*
X016270Y001941D01*
X016296Y001933D01*
X016320Y001921D01*
X016343Y001905D01*
X016364Y001887D01*
X016381Y001866D01*
X016396Y001842D01*
X016407Y001817D01*
X016415Y001791D01*
X016419Y001764D01*
X016419Y001736D01*
X016415Y001709D01*
X016407Y001683D01*
X016396Y001658D01*
X016381Y001634D01*
X016364Y001613D01*
X016343Y001595D01*
X016321Y001579D01*
X016296Y001567D01*
X016270Y001559D01*
X016243Y001554D01*
X016215Y001553D01*
X016188Y001556D01*
X016161Y001563D01*
X016136Y001573D01*
X016112Y001587D01*
X016090Y001604D01*
X016071Y001623D01*
X016055Y001646D01*
X016042Y001670D01*
X016033Y001696D01*
X016027Y001723D01*
X016025Y001750D01*
X016025Y011750D02*
X016027Y011777D01*
X016033Y011804D01*
X016042Y011830D01*
X016055Y011854D01*
X016071Y011877D01*
X016090Y011896D01*
X016112Y011913D01*
X016136Y011927D01*
X016161Y011937D01*
X016188Y011944D01*
X016215Y011947D01*
X016243Y011946D01*
X016270Y011941D01*
X016296Y011933D01*
X016320Y011921D01*
X016343Y011905D01*
X016364Y011887D01*
X016381Y011866D01*
X016396Y011842D01*
X016407Y011817D01*
X016415Y011791D01*
X016419Y011764D01*
X016419Y011736D01*
X016415Y011709D01*
X016407Y011683D01*
X016396Y011658D01*
X016381Y011634D01*
X016364Y011613D01*
X016343Y011595D01*
X016321Y011579D01*
X016296Y011567D01*
X016270Y011559D01*
X016243Y011554D01*
X016215Y011553D01*
X016188Y011556D01*
X016161Y011563D01*
X016136Y011573D01*
X016112Y011587D01*
X016090Y011604D01*
X016071Y011623D01*
X016055Y011646D01*
X016042Y011670D01*
X016033Y011696D01*
X016027Y011723D01*
X016025Y011750D01*
M02*
